<svg xmlns="http://www.w3.org/2000/svg" viewBox="0 0 120.11 32.59"><defs><style>.cls-1{fill:#3600cc;}.cls-2{fill:#1d1e1c;}</style></defs><g id="Camada_2" data-name="Camada 2"><g id="Layer_1" data-name="Layer 1"><path class="cls-1" d="M49.57,16.18v6.53a1.41,1.41,0,0,1-1.42,1.42h0a1.42,1.42,0,0,1-1.41-1.27l-.05-.46a3.84,3.84,0,0,1-3.4,1.94c-1.75,0-2.86-.64-2.86-3.25,0-3.07,2.1-3.9,5.19-3.9.39,0,.74,0,1,0V16c0-1-.41-1.45-2.06-1.45a9.6,9.6,0,0,0-2.45.35A.88.88,0,0,1,41,14.09h0a.87.87,0,0,1,.69-.85A17.93,17.93,0,0,1,45,12.93C48.38,12.93,49.57,13.71,49.57,16.18Zm-2.94,4.45V18.39a5.43,5.43,0,0,0-.58,0c-1.81,0-2.8.7-2.8,2.33,0,1.44.45,1.71,1.28,1.71A2,2,0,0,0,46.63,20.63Z"/><path class="cls-1" d="M61.55,18.61c0,4.35-1.36,5.73-3.92,5.73a3.33,3.33,0,0,1-3.09-1.73v4.66a1.46,1.46,0,0,1-1.46,1.46h0a1.46,1.46,0,0,1-1.46-1.46V14.57A1.42,1.42,0,0,1,53,13.15h0a1.42,1.42,0,0,1,1.41,1.32l0,.39A3.56,3.56,0,0,1,57.78,13C60.4,13,61.55,14.26,61.55,18.61Zm-3.09,0c0-2.92-.54-3.75-1.75-3.75-1.38,0-2.17,1.2-2.17,2.72v2.06c0,1.55.7,2.74,2.08,2.74S58.46,21.48,58.46,18.61Z"/><path class="cls-1" d="M73.11,18.61c0,4.35-1.36,5.73-3.91,5.73a3.31,3.31,0,0,1-3.09-1.73v4.66a1.46,1.46,0,0,1-1.47,1.46h0a1.46,1.46,0,0,1-1.46-1.46V14.57a1.43,1.43,0,0,1,1.42-1.42h0A1.44,1.44,0,0,1,66,14.47l0,.39A3.57,3.57,0,0,1,69.34,13C72,13,73.11,14.26,73.11,18.61Zm-3.09,0c0-2.92-.53-3.75-1.75-3.75-1.38,0-2.16,1.2-2.16,2.72v2.06c0,1.55.7,2.74,2.08,2.74S70,21.48,70,18.61Z"/><path class="cls-2" d="M75.86,8.62h.84V24.13h-.84Z"/><path class="cls-2" d="M79.84,10.58h.85V12h-.85Zm0,2.78h.85V24.13h-.85Z"/><path class="cls-2" d="M83,18.74c0-4.1,1.63-5.53,4.22-5.53a8.14,8.14,0,0,1,2.1.23V14a7.11,7.11,0,0,0-2-.25c-2.19,0-3.49,1.22-3.49,4.95s1.3,4.94,3.49,4.94a6.6,6.6,0,0,0,2-.25V24a7.71,7.71,0,0,1-2.1.25C84.62,24.28,83,22.86,83,18.74Z"/><path class="cls-2" d="M98.38,15.89v8.24h-.76l-.06-2.24a4,4,0,0,1-3.83,2.37c-1.82,0-2.85-.8-2.85-3,0-2.86,2.25-3.52,5.69-3.52.35,0,.68,0,1,0V15.85c0-1.73-1.12-2.06-2.87-2.06a9.64,9.64,0,0,0-3.31.56v-.66a10.8,10.8,0,0,1,3.42-.48C97,13.21,98.38,13.69,98.38,15.89Zm-.82,4.91V18.22c-.37,0-.78,0-1.2,0-2.74.06-4.65.5-4.65,3,0,1.87.78,2.45,2.24,2.45A3.4,3.4,0,0,0,97.56,20.8Z"/><path class="cls-2" d="M109.14,8.47V24.13h-.74l-.06-2.49a3.68,3.68,0,0,1-3.69,2.64c-2.62,0-3.79-1.69-3.79-5.56s1.15-5.51,3.83-5.51a3.62,3.62,0,0,1,3.63,2.56V8.47Zm-.82,11.15V18c0-2.57-1.3-4.16-3.46-4.16s-3.12,1.44-3.12,4.89.89,4.94,3.12,4.94S108.3,22.12,108.32,19.62Z"/><path class="cls-2" d="M111.78,18.74c0-4.08,1.42-5.53,4.16-5.53s4.17,1.45,4.17,5.53-1.45,5.54-4.17,5.54S111.78,22.84,111.78,18.74Zm7.44,0c0-3.69-1.07-4.95-3.28-4.95s-3.27,1.24-3.27,4.95,1.07,4.94,3.27,4.94S119.22,22.42,119.22,18.74Z"/><circle class="cls-2" cx="15.28" cy="30.27" r="2.32"/><rect class="cls-1" x="6.2" y="6.76" width="4.63" height="19.63" rx="2.32"/><rect class="cls-1" y="12.96" width="4.63" height="19.63" rx="2.32"/><rect class="cls-1" x="19.72" y="6.76" width="4.63" height="19.63" rx="2.32"/><rect class="cls-1" x="25.92" y="12.96" width="4.63" height="19.63" rx="2.32"/><rect class="cls-1" x="12.96" width="4.63" height="19.63" rx="2.32"/></g></g></svg>